<svg width="900" height="1400" viewBox="0 0 900 1400" xmlns="http://www.w3.org/2000/svg">
  <defs>
    <linearGradient id="spaceSky" x1="0" y1="0" x2="0" y2="1">
      <stop offset="0%" stop-color="#1a1f57"/>
      <stop offset="36%" stop-color="#25256f"/>
      <stop offset="70%" stop-color="#1e2f7e"/>
      <stop offset="100%" stop-color="#101f58"/>
    </linearGradient>
    <radialGradient id="nebulaA" cx="0.22" cy="0.2" r="0.36">
      <stop offset="0%" stop-color="#8dd6ff" stop-opacity="0.48"/>
      <stop offset="100%" stop-color="#8dd6ff" stop-opacity="0"/>
    </radialGradient>
    <radialGradient id="nebulaB" cx="0.78" cy="0.42" r="0.44">
      <stop offset="0%" stop-color="#c59bff" stop-opacity="0.44"/>
      <stop offset="100%" stop-color="#c59bff" stop-opacity="0"/>
    </radialGradient>
    <linearGradient id="planet" x1="0" y1="0" x2="1" y2="1">
      <stop offset="0%" stop-color="#f4bf6d"/>
      <stop offset="100%" stop-color="#8f6a44"/>
    </linearGradient>
    <linearGradient id="asteroid" x1="0" y1="0" x2="1" y2="1">
      <stop offset="0%" stop-color="#c9b58f"/>
      <stop offset="100%" stop-color="#7f6845"/>
    </linearGradient>
    <pattern id="starField" width="140" height="140" patternUnits="userSpaceOnUse">
      <circle cx="14" cy="26" r="1.8" fill="#eaf4ff"/>
      <circle cx="52" cy="82" r="1.3" fill="#ffffff"/>
      <circle cx="92" cy="30" r="1.6" fill="#f6ebff"/>
      <circle cx="122" cy="98" r="1.4" fill="#e3f7ff"/>
      <circle cx="74" cy="120" r="1.1" fill="#ffffff"/>
      <circle cx="24" cy="112" r="1" fill="#fef4d6"/>
    </pattern>
  </defs>

  <rect width="900" height="1400" fill="url(#spaceSky)"/>
  <rect width="900" height="1400" fill="url(#nebulaA)"/>
  <rect width="900" height="1400" fill="url(#nebulaB)"/>
  <rect width="900" height="1400" fill="url(#starField)" opacity="0.68"/>

  <circle cx="720" cy="220" r="74" fill="#f4f8ff" opacity="0.16"/>
  <circle cx="720" cy="220" r="44" fill="#f4f8ff" opacity="0.24"/>

  <ellipse cx="260" cy="1260" rx="360" ry="170" fill="#3d5ea4"/>
  <ellipse cx="260" cy="1260" rx="360" ry="170" fill="url(#nebulaA)" opacity="0.42"/>

  <path d="M90 570 C300 620 470 720 620 900" stroke="#f2f7aa" stroke-opacity="0.65" stroke-width="14" fill="none" stroke-linecap="round"/>
  <path d="M120 572 C320 626 490 726 640 906" stroke="#89f3ff" stroke-opacity="0.54" stroke-width="7" fill="none" stroke-linecap="round"/>

  <ellipse cx="566" cy="560" rx="98" ry="62" fill="url(#asteroid)"/>
  <ellipse cx="542" cy="920" rx="126" ry="78" fill="url(#asteroid)"/>
  <ellipse cx="662" cy="736" rx="34" ry="22" fill="url(#asteroid)" opacity="0.86"/>

  <ellipse cx="196" cy="1038" rx="62" ry="40" fill="#7ae8ff" opacity="0.2"/>
  <ellipse cx="336" cy="1086" rx="34" ry="26" fill="#d9a7ff" opacity="0.18"/>

  <ellipse cx="780" cy="86" rx="58" ry="30" fill="url(#planet)"/>

  <rect x="0" y="1244" width="900" height="156" fill="#0d1a43" opacity="0.4"/>
</svg>
