<svg width="1600" height="1200" viewBox="0 0 1600 1200" xmlns="http://www.w3.org/2000/svg">
  <defs>
    <linearGradient id="spaceBase" x1="0" y1="0" x2="0" y2="1">
      <stop offset="0%" stop-color="#070b1d"/>
      <stop offset="40%" stop-color="#0e1433"/>
      <stop offset="72%" stop-color="#111a40"/>
      <stop offset="100%" stop-color="#0a1028"/>
    </linearGradient>
    <radialGradient id="milkyBand" cx="0.62" cy="0.38" r="0.55">
      <stop offset="0%" stop-color="#e9e4ff" stop-opacity="0.42"/>
      <stop offset="38%" stop-color="#b7d7ff" stop-opacity="0.24"/>
      <stop offset="68%" stop-color="#8ca9ff" stop-opacity="0.12"/>
      <stop offset="100%" stop-color="#8ca9ff" stop-opacity="0"/>
    </radialGradient>
    <radialGradient id="nebulaA" cx="0.2" cy="0.22" r="0.38">
      <stop offset="0%" stop-color="#6bc4ff" stop-opacity="0.26"/>
      <stop offset="100%" stop-color="#6bc4ff" stop-opacity="0"/>
    </radialGradient>
    <radialGradient id="nebulaB" cx="0.84" cy="0.7" r="0.42">
      <stop offset="0%" stop-color="#c18dff" stop-opacity="0.24"/>
      <stop offset="100%" stop-color="#c18dff" stop-opacity="0"/>
    </radialGradient>
    <pattern id="starsSmall" width="140" height="140" patternUnits="userSpaceOnUse">
      <circle cx="10" cy="18" r="1.2" fill="#f8fbff" opacity="0.75"/>
      <circle cx="32" cy="80" r="0.9" fill="#d9e8ff" opacity="0.72"/>
      <circle cx="68" cy="36" r="1" fill="#ffffff" opacity="0.76"/>
      <circle cx="92" cy="110" r="0.8" fill="#d5dbff" opacity="0.7"/>
      <circle cx="122" cy="58" r="1.1" fill="#fff7de" opacity="0.76"/>
      <circle cx="52" cy="122" r="0.7" fill="#f0f8ff" opacity="0.68"/>
    </pattern>
    <pattern id="starsBig" width="260" height="260" patternUnits="userSpaceOnUse">
      <circle cx="34" cy="42" r="2.1" fill="#ffffff" opacity="0.62"/>
      <circle cx="180" cy="76" r="1.9" fill="#f7edff" opacity="0.58"/>
      <circle cx="214" cy="190" r="2.3" fill="#cfe0ff" opacity="0.56"/>
      <circle cx="102" cy="212" r="1.7" fill="#fff7d8" opacity="0.54"/>
    </pattern>
    <filter id="blurSoft" x="-20%" y="-20%" width="140%" height="140%">
      <feGaussianBlur stdDeviation="7"/>
    </filter>
  </defs>

  <rect width="1600" height="1200" fill="url(#spaceBase)"/>
  <rect width="1600" height="1200" fill="url(#nebulaA)"/>
  <rect width="1600" height="1200" fill="url(#nebulaB)"/>

  <g transform="rotate(-18 800 600)">
    <ellipse cx="980" cy="440" rx="760" ry="170" fill="url(#milkyBand)"/>
    <ellipse cx="980" cy="440" rx="620" ry="130" fill="#f8f4ff" opacity="0.08" filter="url(#blurSoft)"/>
  </g>

  <rect width="1600" height="1200" fill="url(#starsSmall)"/>
  <rect width="1600" height="1200" fill="url(#starsBig)" opacity="0.9"/>

  <g opacity="0.35">
    <path d="M0 980 C230 920 420 960 610 1070 C780 1168 1000 1200 1240 1160 C1360 1140 1480 1100 1600 1040 L1600 1200 L0 1200 Z" fill="#24365f"/>
    <path d="M0 1030 C260 960 500 1010 700 1120 C860 1200 1060 1230 1290 1200 C1410 1186 1510 1158 1600 1120 L1600 1200 L0 1200 Z" fill="#1a2748"/>
  </g>
</svg>
